<svg width="18" height="13" viewBox="0 0 18 13" fill="none" xmlns="http://www.w3.org/2000/svg">
<path d="M17.1492 3.09527C17.1492 3.09527 16.9834 1.92433 16.4725 1.41018C15.8257 0.733495 15.1026 0.730178 14.7709 0.690373C12.3958 0.517883 8.82994 0.517883 8.82994 0.517883H8.8233C8.8233 0.517883 5.25742 0.517883 2.88237 0.690373C2.55066 0.730178 1.82753 0.733495 1.1807 1.41018C0.669866 1.92433 0.507328 3.09527 0.507328 3.09527C0.507328 3.09527 0.334839 4.47187 0.334839 5.84515V7.13218C0.334839 8.50546 0.504011 9.88206 0.504011 9.88206C0.504011 9.88206 0.669866 11.053 1.17738 11.5672C1.82422 12.2438 2.6734 12.2206 3.05155 12.2936C4.41156 12.423 8.82662 12.4628 8.82662 12.4628C8.82662 12.4628 12.3958 12.4561 14.7709 12.287C15.1026 12.2472 15.8257 12.2438 16.4725 11.5672C16.9834 11.053 17.1492 9.88206 17.1492 9.88206C17.1492 9.88206 17.3184 8.50878 17.3184 7.13218V5.84515C17.3184 4.47187 17.1492 3.09527 17.1492 3.09527ZM7.07187 8.69454V3.92123L11.6594 6.31618L7.07187 8.69454Z" fill="black"/>
</svg>
